HIERARCHY
ROOT Hips
{
  OFFSET 0 0.240689 0
  CHANNELS 6 Xposition Yposition Zposition Zrotation Xrotation Yrotation
  JOINT Bip01_Spine0
  {
    OFFSET 0 -24.7459 49.7988
    CHANNELS 6 Xposition Yposition Zposition Zrotation Xrotation Yrotation
    JOINT Bip01_Pelvis
    {
      OFFSET 0 0 0
      CHANNELS 6 Xposition Yposition Zposition Zrotation Xrotation Yrotation
      JOINT Bip01_Spine0_Tail
      {
        OFFSET -6.47486 -3.86022 0
        CHANNELS 6 Xposition Yposition Zposition Zrotation Xrotation Yrotation
        JOINT Bip01_Spine0_Tail1
        {
          OFFSET 10.3837 -0.00825882 0
          CHANNELS 6 Xposition Yposition Zposition Zrotation Xrotation Yrotation
          JOINT Bip01_Spine0_Tail2
          {
            OFFSET 10.3837 -0.00826263 0
            CHANNELS 6 Xposition Yposition Zposition Zrotation Xrotation Yrotation
            JOINT Bip01_Spine0_Tail3
            {
              OFFSET 10.3837 -0.00825882 0
              CHANNELS 6 Xposition Yposition Zposition Zrotation Xrotation Yrotation
              JOINT Bip01_Spine0_Tail4
              {
                OFFSET 10.3837 -0.00826263 0
                CHANNELS 6 Xposition Yposition Zposition Zrotation Xrotation Yrotation
                End Site
                {
                  OFFSET 0 0 0
                }
              }
            }
          }
        }
      }
      JOINT Bip01_R_Thigh
      {
        OFFSET 0 -1.52588e-005 -8.75617
        CHANNELS 6 Xposition Yposition Zposition Zrotation Xrotation Yrotation
        JOINT Bip01_R_Calf
        {
          OFFSET 19.7638 0 0
          CHANNELS 6 Xposition Yposition Zposition Zrotation Xrotation Yrotation
          JOINT Bip01_R_Foot
          {
            OFFSET 18.6534 0 0
            CHANNELS 6 Xposition Yposition Zposition Zrotation Xrotation Yrotation
            JOINT Bip01_R_Toe0
            {
              OFFSET 5.09145 13.9567 0
              CHANNELS 6 Xposition Yposition Zposition Zrotation Xrotation Yrotation
              JOINT Bip01_R_Toe01
              {
                OFFSET 4.28803 0 0
                CHANNELS 6 Xposition Yposition Zposition Zrotation Xrotation Yrotation
                JOINT Bip01_R_Toe02
                {
                  OFFSET 3.85801 0 0
                  CHANNELS 6 Xposition Yposition Zposition Zrotation Xrotation Yrotation
                  End Site
                  {
                    OFFSET 0 0 0
                  }
                }
              }
            }
          }
        }
      }
      JOINT Bip01_L_Thigh
      {
        OFFSET 0 1.52588e-005 8.75617
        CHANNELS 6 Xposition Yposition Zposition Zrotation Xrotation Yrotation
        JOINT Bip01_L_Calf
        {
          OFFSET 19.7638 0 0
          CHANNELS 6 Xposition Yposition Zposition Zrotation Xrotation Yrotation
          JOINT Bip01_L_Foot
          {
            OFFSET 18.6534 0 0
            CHANNELS 6 Xposition Yposition Zposition Zrotation Xrotation Yrotation
            JOINT Bip01_L_Toe0
            {
              OFFSET 5.09144 13.9567 0
              CHANNELS 6 Xposition Yposition Zposition Zrotation Xrotation Yrotation
              JOINT Bip01_L_Toe01
              {
                OFFSET 4.28802 0 0
                CHANNELS 6 Xposition Yposition Zposition Zrotation Xrotation Yrotation
                JOINT Bip01_L_Toe02
                {
                  OFFSET 3.85801 0 0
                  CHANNELS 6 Xposition Yposition Zposition Zrotation Xrotation Yrotation
                  End Site
                  {
                    OFFSET 0 0 0
                  }
                }
              }
            }
          }
        }
      }
      JOINT Bip01_Spine
      {
        OFFSET 9.14835 -0.00640869 -1.1e-005
        CHANNELS 6 Xposition Yposition Zposition Zrotation Xrotation Yrotation
        JOINT Bip01_Spine1
        {
          OFFSET 8.04366 -0.00638199 0
          CHANNELS 6 Xposition Yposition Zposition Zrotation Xrotation Yrotation
          JOINT Bip01_Spine2
          {
            OFFSET 8.04367 -0.00639343 0
            CHANNELS 6 Xposition Yposition Zposition Zrotation Xrotation Yrotation
            JOINT Bip01_Spine3
            {
              OFFSET 8.04304 -0.00831222 0
              CHANNELS 6 Xposition Yposition Zposition Zrotation Xrotation Yrotation
              JOINT Bip01_Neck
              {
                OFFSET 10.6685 1.06813 0
                CHANNELS 6 Xposition Yposition Zposition Zrotation Xrotation Yrotation
                JOINT Bip01_R_Clavicle
                {
                  OFFSET -3.21661 -4.89635 -9.04802
                  CHANNELS 6 Xposition Yposition Zposition Zrotation Xrotation Yrotation
                  JOINT Bip01_R_UpperArm
                  {
                    OFFSET 19.0492 0 0
                    CHANNELS 6 Xposition Yposition Zposition Zrotation Xrotation Yrotation
                    JOINT Bip01_R_Forearm
                    {
                      OFFSET 10.3706 0 0
                      CHANNELS 6 Xposition Yposition Zposition Zrotation Xrotation Yrotation
                      JOINT Bip01_R_Hand
                      {
                        OFFSET 22.8632 0 0
                        CHANNELS 6 Xposition Yposition Zposition Zrotation Xrotation Yrotation
                        JOINT Bip01_R_Finger0
                        {
                          OFFSET 6.48259 0.103651 0.504496
                          CHANNELS 6 Xposition Yposition Zposition Zrotation Xrotation Yrotation
                          JOINT Bip01_R_Finger01
                          {
                            OFFSET 3.66847 0 0
                            CHANNELS 6 Xposition Yposition Zposition Zrotation Xrotation Yrotation
                            End Site
                            {
                              OFFSET 0 0 0
                            }
                          }
                        }
                      }
                    }
                  }
                }
                JOINT Bip01_L_Clavicle
                {
                  OFFSET -3.21661 -4.89641 9.04797
                  CHANNELS 6 Xposition Yposition Zposition Zrotation Xrotation Yrotation
                  JOINT Bip01_L_UpperArm
                  {
                    OFFSET 19.0492 0 0
                    CHANNELS 6 Xposition Yposition Zposition Zrotation Xrotation Yrotation
                    JOINT Bip01_L_Forearm
                    {
                      OFFSET 10.3706 0 0
                      CHANNELS 6 Xposition Yposition Zposition Zrotation Xrotation Yrotation
                      JOINT Bip01_L_Hand
                      {
                        OFFSET 22.8631 0 0
                        CHANNELS 6 Xposition Yposition Zposition Zrotation Xrotation Yrotation
                        JOINT Bip01_L_Finger0
                        {
                          OFFSET 6.48257 0.103655 -0.504492
                          CHANNELS 6 Xposition Yposition Zposition Zrotation Xrotation Yrotation
                          JOINT Bip01_L_Finger01
                          {
                            OFFSET 3.66844 0 0
                            CHANNELS 6 Xposition Yposition Zposition Zrotation Xrotation Yrotation
                            End Site
                            {
                              OFFSET 0 0 0
                            }
                          }
                        }
                      }
                    }
                  }
                }
                JOINT Bip01_Neck1
                {
                  OFFSET 7.52459 -0.00656509 0
                  CHANNELS 6 Xposition Yposition Zposition Zrotation Xrotation Yrotation
                  JOINT Bip01_Neck2
                  {
                    OFFSET 8.4783 -0.00588226 0
                    CHANNELS 6 Xposition Yposition Zposition Zrotation Xrotation Yrotation
                    JOINT Bip01_Head
                    {
                      OFFSET 8.41606 0 0
                      CHANNELS 6 Xposition Yposition Zposition Zrotation Xrotation Yrotation
                      JOINT EyesBlue
                      {
                        OFFSET 0 0 0
                        CHANNELS 6 Xposition Yposition Zposition Zrotation Xrotation Yrotation
                        JOINT EyesBlue_2
                        {
                          OFFSET 0 -0.500007 0
                          CHANNELS 6 Xposition Yposition Zposition Zrotation Xrotation Yrotation
                          End Site
                          {
                            OFFSET 0 0 0
                          }
                        }
                      }
                      JOINT Bip01_Head2_Eyeleds
                      {
                        OFFSET 6.52751 7.61746 2.2e-005
                        CHANNELS 6 Xposition Yposition Zposition Zrotation Xrotation Yrotation
                        End Site
                        {
                          OFFSET 0 0 0
                        }
                      }
                      JOINT Bip01_Head_Muzzle
                      {
                        OFFSET 2.88628 13.9448 3.88994
                        CHANNELS 6 Xposition Yposition Zposition Zrotation Xrotation Yrotation
                        End Site
                        {
                          OFFSET 0 0 0
                        }
                      }
                      JOINT Bip01_Head1_Jaw
                      {
                        OFFSET 0.271065 1.32405 0
                        CHANNELS 6 Xposition Yposition Zposition Zrotation Xrotation Yrotation
                        JOINT _Bip01_Head11_TungeControler
                        {
                          OFFSET 4.61616 5.82872 0
                          CHANNELS 6 Xposition Yposition Zposition Zrotation Xrotation Yrotation
                          JOINT _Bip01_Ponytail3_tunge
                          {
                            OFFSET 5.17785 2.98805 0
                            CHANNELS 6 Xposition Yposition Zposition Zrotation Xrotation Yrotation
                            JOINT Bip01_Ponytail31
                            {
                              OFFSET 5.57569 0 0
                              CHANNELS 6 Xposition Yposition Zposition Zrotation Xrotation Yrotation
                              JOINT Bip01_Ponytail32
                              {
                                OFFSET 2.93165 0 0
                                CHANNELS 6 Xposition Yposition Zposition Zrotation Xrotation Yrotation
                                JOINT Bip01_Ponytail3Nub
                                {
                                  OFFSET 3.30155 0 0
                                  CHANNELS 6 Xposition Yposition Zposition Zrotation Xrotation Yrotation
                                  End Site
                                  {
                                    OFFSET 0 0 0
                                  }
                                }
                              }
                            }
                          }
                        }
                        JOINT Bip01_Head_JawNub
                        {
                          OFFSET 15.5776 -0.000389099 0
                          CHANNELS 6 Xposition Yposition Zposition Zrotation Xrotation Yrotation
                          End Site
                          {
                            OFFSET 0 0 0
                          }
                        }
                      }
                      JOINT Bip01_Ponytail2
                      {
                        OFFSET 9.40334 1.03973 -6.51764
                        CHANNELS 6 Xposition Yposition Zposition Zrotation Xrotation Yrotation
                        JOINT Bip01_Ponytail21
                        {
                          OFFSET 2.77018 -0.00640106 1.33514e-005
                          CHANNELS 6 Xposition Yposition Zposition Zrotation Xrotation Yrotation
                          End Site
                          {
                            OFFSET 0 0 0
                          }
                        }
                      }
                      JOINT Bip01_Ponytail1
                      {
                        OFFSET 9.40368 1.03969 6.51768
                        CHANNELS 6 Xposition Yposition Zposition Zrotation Xrotation Yrotation
                        JOINT Bip01_Ponytail11
                        {
                          OFFSET 2.77018 -0.00640487 0
                          CHANNELS 6 Xposition Yposition Zposition Zrotation Xrotation Yrotation
                          End Site
                          {
                            OFFSET 0 0 0
                          }
                        }
                      }
                    }
                  }
                }
              }
            }
          }
        }
      }
    }
  }
}
MOTION
Frames:	4
Frame Time:	0.0333333
0 1.49439 26.9978 -0 -90 -0 -0.02095 -28.7008 41.5509 90 3.67224e-005 93.7294 0 0 0 -89.9996 -0.00038668 -107.992 -6.15991 -3.85871 2.0005 158.191 6.88197 -20.8502 10.3816 -0.007957 0.000129 -11.1732 0.000388333 -4.1835 10.3822 -0.008049 3.70002e-005 -6.89663 0.000729909 -4.18353 10.3856 -0.007804 0.000128 21.9361 -0.354892 -4.15358 10.3838 -0.008117 0.000134001 3.92046 0.00136469 -4.18341 1.3e-005 -1.1e-005 -8.75617 -115.878 -17.0416 153.097 19.7638 0 7.10543e-015 -76.6454 -0.000182395 -0.00143465 18.6534 7.10543e-015 3e-006 26.8616 0.626176 3.03471 5.09144 13.9567 1.32184e-007 86.9389 10.4013 7.85646 4.288 7e-006 -3e-006 42.0112 0.00175726 -0.000154158 3.85799 -1.77636e-015 -7.10543e-015 -44.9883 0.000236702 0.00120068 -1.5e-005 1.5e-005 8.75617 -109.24 -17.1203 -160.083 19.7638 -7.10543e-015 7.10543e-015 -88.117 -3.83313e-005 -0.00168353 18.6534 1e-006 7.10543e-015 -17.931 8.69324 -1.0499 5.09144 13.9567 -6.01697e-006 101.069 -11.6456 -5.83507 4.288 1.42109e-014 1e-006 73.2473 -2.80149e-006 5.81958e-007 3.85799 -4.44089e-014 1e-006 -23.7846 0.000931747 0.000970436 8.7 -0.006305 -2.82536 -2.58305 -0.569271 20.1337 8.04433 -0.006252 1.7e-005 6.80932 -0.394625 -3.80542 8.04471 -0.006195 7.20001e-005 10.2735 -0.53724 -3.76138 8.04269 -0.008174 5.8e-005 -5.97423 0.255143 -1.31569 10.6685 1.06813 0.000159002 -12.884 0.00412481 2.86547 -2.79427 -4.87449 -9.19883 -157.635 -73.5568 155.939 19.0492 1e-006 1e-006 108.027 25.4814 -110.585 10.3706 -2.13163e-014 -1e-006 -90.3487 6.75709e-006 -0.000375838 22.8631 2e-006 1e-006 11.6299 8.86437 1.18759 6.48256 0.103653 0.504496 -28.504 -12.1426 -9.70278 3.66843 2.25597e-012 3e-006 40.107 -2.77171e-005 3.87389e-005 -3.69835 -4.87325 8.87435 179.012 78.4805 -117.122 19.0492 1e-006 -2.84217e-014 69.6062 40.5742 95.0851 10.3706 -7.10543e-015 -1.77636e-015 -132.409 0.00116083 -0.00277677 22.8631 3e-006 2.4869e-014 -23.6691 -25.0477 -23.2073 6.48255 0.103657 -0.504496 -60.7346 5.07011 14.6666 3.66843 -1.53211e-014 8.88179e-015 40.107 3.63153e-006 -4.47338e-006 7.52454 -0.006561 0.000107 -12.8849 0.0041061 2.86546 8.47823 -0.005756 7.10003e-005 29.1944 0.00468481 2.86446 8.41605 3e-006 3.76144e-013 -109.289 -0.907802 -1.71763 -3e-006 3e-006 -3e-006 -23.1098 1.37701e-015 90 5.3484e-008 -0.500007 7.76205e-008 -50.052 90 140.052 0 0 0 -105.731 -1.52588e-005 -180 5.96664 13.7181 3.90623 -22.989 1.3702e-015 90 0 0 0 -85.3358 1.52588e-005 -180 0 0 0 -162.289 7.58212e-005 -2.74726e-005 0 0 0 170.24 2.4207e-005 -1.72991e-006 0 0 0 1.83152 -9.26532e-006 1.0951e-006 0 0 0 -17.65 -2.58518e-005 -7.57431e-006 0 0 0 -26.1943 -1.15069e-006 9.03427e-007 15.5776 -0.000396 -6.99938e-006 -3.97569e-016 2.48481e-017 -0 9.40534 1.04103 -6.51536 62.6007 -47.7081 117.427 2.76784 -0.005071 -0.003318 -22.2085 31.2127 28.2515 9.40569 1.04099 6.51538 62.6005 47.7088 -117.427 2.76784 -0.005071 0.003318 -22.2085 -31.2126 -28.2513 
0 1.49439 27.9475 -0 -90 -0 -0.0295225 -28.7008 41.4539 90 2.95702e-005 93.4719 0 0 0 -89.9995 -0.000349338 -108.579 -6.13948 -3.85871 2.06375 158.161 7.13252 -21.3684 10.3816 -0.007957 0.000129 -11.2763 0.00397999 -4.16311 10.3822 -0.008049 3.70002e-005 -6.99976 0.00424742 -4.16288 10.3856 -0.007804 0.000128 27.1932 -0.715345 -4.10093 10.3838 -0.008117 0.000134001 3.81792 0.00488413 -4.16258 1.3e-005 -1.1e-005 -8.75617 -117.702 -16.7669 152.37 19.7638 0 1.06581e-014 -77.8688 -0.000151723 -0.00143821 18.6534 -7.10543e-015 3e-006 26.3247 0.601304 2.91158 5.09144 13.9567 1.2562e-007 86.7622 10.3772 7.88833 4.288 7e-006 -3e-006 42.0112 0.00175682 -0.000154129 3.85799 -1.06581e-014 7.10543e-015 -44.9927 0.000236945 0.00120099 -1.5e-005 1.5e-005 8.75617 -110.939 -18.3039 -160.741 19.7638 -1.42109e-014 7.10543e-015 -89.5046 2.66837e-006 -0.00168396 18.6534 1e-006 0 -18.0996 8.70113 -1.00482 5.09144 13.9567 -6.36971e-006 100.826 -11.6838 -5.75879 4.288 0 1e-006 72.6951 -2.73214e-006 6.02594e-007 3.85799 -4.88498e-014 1e-006 -24.0188 0.000927755 0.000974193 8.67119 -0.006305 -2.9147 -2.66614 -0.630188 20.7352 8.04433 -0.006252 1.7e-005 6.71337 -0.386528 -3.79156 8.04471 -0.006195 7.20001e-005 10.1776 -0.528426 -3.74834 8.04269 -0.008174 5.8e-005 -6.07062 0.255815 -1.30078 10.6685 1.06813 0.000158999 -12.573 0.00330006 2.89952 -2.81523 -4.85669 -9.20189 -157.819 -73.5594 155.62 19.0492 1e-006 1e-006 105.237 21.6712 -109.279 10.3706 -2.84217e-014 -1e-006 -95.1479 2.30406e-005 -0.000375697 22.8631 2e-006 1e-006 11.968 8.87171 0.78503 6.48256 0.103653 0.504496 -28.049 -12.2183 -9.60657 3.66843 3.59623e-012 3e-006 40.107 -4.71296e-005 5.52288e-005 -3.73008 -4.85571 8.87075 178.534 78.4634 -117.695 19.0492 1e-006 -1.95399e-014 70.1195 37.2504 94.9604 10.3706 -7.10543e-015 1.77636e-015 -129.826 0.00107983 -0.00278905 22.8631 3e-006 3.55271e-014 -21.543 -25.2806 -23.1746 6.48255 0.103657 -0.504496 -60.7386 5.06908 14.667 3.66843 -9.88099e-015 3.55271e-015 40.107 3.7143e-006 -5.28713e-006 7.52454 -0.006561 0.000107 -12.5734 0.00329001 2.89952 8.47823 -0.005756 7.10003e-005 29.5056 0.00385994 2.89879 8.41605 3e-006 3.63709e-013 -109.004 -0.600249 -1.63776 -3e-006 3e-006 -3e-006 -23.1098 1.37701e-015 90 5.31575e-008 -0.500007 7.72147e-008 -50.2578 90 140.258 0 0 0 -104.617 -7.01671e-015 -180 6.01724 13.7141 3.90078 -22.989 1.3702e-015 90 0 0 0 -85.3358 4.57764e-005 -180 0 0 0 -162.289 5.46136e-005 -2.075e-005 0 0 0 170.24 2.67613e-005 -1.75655e-006 0 0 0 1.83152 -1.06172e-005 1.18168e-006 0 0 0 -17.65 -2.83519e-005 -7.98544e-006 0 0 0 -26.1943 -3.36961e-008 1.43665e-006 15.5776 -0.000396 -6.99953e-006 3.97569e-016 3.72721e-017 -3.97569e-016 9.40534 1.04103 -6.51536 62.6007 -47.7081 117.427 2.76784 -0.005071 -0.003318 -22.2085 31.2127 28.2515 9.40569 1.04099 6.51538 62.6005 47.7088 -117.427 2.76784 -0.005071 0.003318 -22.2085 -31.2126 -28.2513 
0 1.49439 28.8972 -0 -90 -0 -0.0516332 -28.7008 41.3287 90 2.34061e-005 93.1404 0 0 0 -89.9992 -0.000124905 -108.705 -6.13484 -3.85871 2.07715 157.816 7.30342 -21.1876 10.3816 -0.007957 0.000129 -11.6545 0.0161218 -3.91098 10.3822 -0.008049 3.70002e-005 -7.37763 0.0162144 -3.91051 10.3856 -0.007804 0.000128 31.3105 -0.960558 -3.779 10.3838 -0.008117 0.000134002 3.44024 0.016613 -3.91034 1.3e-005 -1.1e-005 -8.75617 -119.638 -15.9327 151.834 19.7638 -7.10543e-015 0 -79.3016 -0.000142559 -0.00143649 18.6534 7.10543e-015 3e-006 25.4997 0.559874 2.76456 5.09144 13.9567 1.18243e-007 86.6443 10.3611 7.90955 4.288 7e-006 -3e-006 42.0001 0.00175672 -0.00015376 3.85799 1.77636e-015 7.10543e-015 -44.9966 0.000236971 0.00120107 -1.5e-005 1.5e-005 8.75617 -112.699 -18.8738 -161.476 19.7638 7.10543e-015 0 -91.1838 1.75847e-005 -0.00168387 18.6534 1e-006 -7.10543e-015 -17.2527 8.50862 -0.989338 5.09144 13.9567 -6.7067e-006 102.027 -11.7778 -5.56803 4.288 0 1e-006 71.3321 -3.04064e-006 6.51917e-007 3.85799 -7.54951e-014 1e-006 -24.6819 0.000916799 0.000984947 8.66471 -0.006305 -2.93375 -2.78061 -0.68122 20.879 8.04433 -0.006252 1.7e-005 6.58987 -0.376086 -3.77293 8.04471 -0.006195 7.20002e-005 10.0541 -0.516967 -3.73053 8.04269 -0.008174 5.8e-005 -6.1949 0.256471 -1.28028 10.6685 1.06813 0.000158993 -12.172 0.00359024 2.92579 -2.84484 -4.83358 -9.20488 -157.975 -73.7622 154.852 19.0492 1e-006 1e-006 102.158 16.2288 -108.087 10.3706 -2.4869e-014 -1e-006 -100.799 4.19147e-005 -0.000375753 22.8631 2e-006 1e-006 13.201 10.2554 0.15317 6.48256 0.103653 0.504496 -29.1029 -12.0421 -9.82753 3.66843 5.32196e-012 3e-006 40.107 -7.2229e-005 7.63229e-005 -3.768 -4.83251 8.86736 178.01 78.443 -118.299 19.0492 1e-006 -3.55271e-014 70.5916 33.9382 95.0069 10.3706 3.19744e-014 3.55271e-015 -126.655 0.000981363 -0.00279753 22.8631 3e-006 3.19744e-014 -19.8305 -25.4931 -23.0934 6.48255 0.103657 -0.504496 -60.7382 5.06917 14.6669 3.66843 0 7.10543e-015 40.107 3.99393e-006 -6.23123e-006 7.52454 -0.006561 0.000107 -12.1722 0.00358237 2.92579 8.47823 -0.005756 7.10003e-005 29.907 0.00389505 2.92521 8.41605 3e-006 3.7037e-013 -108.637 -0.253745 -1.55699 -3e-006 3e-006 -3e-006 -23.1098 1.37701e-015 90 5.27828e-008 -0.500007 7.65746e-008 -50.5851 90 140.585 0 0 0 -103.504 -1.52588e-005 -180 6.06784 13.71 3.89532 -22.989 1.3702e-015 90 0 0 0 -85.3358 7.6294e-005 -180 0 0 0 -162.289 2.8432e-005 -1.24488e-005 0 0 0 170.24 3.08839e-005 -1.78834e-006 0 0 0 1.83152 -1.29037e-005 1.31935e-006 0 0 0 -17.65 -3.13779e-005 -8.59749e-006 0 0 0 -26.1943 1.00996e-006 1.92328e-006 15.5776 -0.000396 -6.99972e-006 -7.95139e-016 6.21202e-017 -7.95139e-016 9.40534 1.04103 -6.51536 62.6007 -47.7081 117.427 2.76784 -0.005071 -0.003318 -22.2085 31.2126 28.2515 9.40569 1.04099 6.51538 62.6005 47.7088 -117.427 2.76784 -0.005071 0.003318 -22.2085 -31.2126 -28.2513 
0 1.49439 29.847 -0 -90 -0 -0.0748574 -28.7008 41.2028 90 3.66143e-005 92.8069 0 0 0 -89.9989 3.94102e-005 -108.794 -6.13155 -3.85871 2.08653 157.46 7.46163 -20.9659 10.3816 -0.007957 0.000129 -12.0388 0.0280689 -3.65365 10.3822 -0.008049 3.70002e-005 -7.76161 0.0279884 -3.65296 10.3856 -0.007804 0.000128 34.9599 -1.1756 -3.45991 10.3838 -0.008117 0.000134002 3.05632 0.0281912 -3.65292 1.3e-005 -1.1e-005 -8.75617 -121.578 -15.0595 151.322 19.7638 3.55271e-015 3.55271e-015 -80.7309 -0.000106685 -0.0014396 18.6534 0 3e-006 24.6239 0.519602 2.6133 5.09144 13.9567 1.10921e-007 86.5461 10.3477 7.92719 4.288 7e-006 -3e-006 41.9911 0.00175664 -0.000153457 3.85799 -1.77636e-015 0 -45.0004 0.000236986 0.00120114 -1.5e-005 1.5e-005 8.75617 -114.459 -19.3983 -162.201 19.7638 1.42109e-014 1.42109e-014 -92.8513 4.20205e-005 -0.00168388 18.6534 1e-006 -1.42109e-014 -16.3963 8.30937 -0.970641 5.09144 13.9567 -6.88085e-006 103.319 -11.8727 -5.37056 4.288 0 1e-006 69.8858 -3.35687e-006 7.05643e-007 3.85799 -7.01661e-014 1e-006 -25.3757 0.00090519 0.000996059 8.66015 -0.006305 -2.94709 -2.89576 -0.731102 20.9851 8.04433 -0.006252 1.7e-005 6.46554 -0.365684 -3.75438 8.04471 -0.006195 7.20002e-005 9.92986 -0.505555 -3.71281 8.04269 -0.008174 5.8e-005 -6.31994 0.257064 -1.25987 10.6685 1.06813 0.000158987 -11.7684 0.00395043 2.95231 -2.87458 -4.8103 -9.20789 -158.138 -73.9724 154.033 19.0492 1e-006 1e-006 99.2165 11.049 -106.375 10.3706 -4.26326e-014 -1e-006 -106.516 6.0785e-005 -0.000375886 22.8631 2e-006 1e-006 14.4637 11.7034 -0.524205 6.48256 0.103653 0.504496 -30.2396 -11.847 -10.0629 3.66843 8.95461e-012 3e-006 40.107 -0.000125183 0.000120766 -3.80614 -4.80911 8.86394 177.48 78.4215 -118.902 19.0492 1e-006 -2.4869e-014 71.0828 30.6315 94.9799 10.3706 -3.55271e-014 2.13163e-014 -123.445 0.00085109 -0.0027542 22.8631 3e-006 2.66454e-014 -18.1488 -25.7003 -23.0129 6.48255 0.103657 -0.504496 -60.7378 5.06927 14.6669 3.66843 -3.55272e-015 7.10543e-015 40.107 4.39837e-006 -7.24455e-006 7.52454 -0.006561 0.000107001 -11.7684 0.00394489 2.95231 8.47823 -0.005756 7.10003e-005 30.3108 0.00403544 2.95188 8.41605 3e-006 3.6593e-013 -108.268 0.0946153 -1.47771 -3e-006 3e-006 -3e-006 -23.1098 1.37701e-015 90 5.23934e-008 -0.500007 7.57948e-008 -50.9879 90 140.988 0 0 0 -102.39 -1.52588e-005 -180 6.11844 13.706 3.88987 -22.989 1.3702e-015 90 0 0 0 -85.3358 9.15528e-005 -180 0 0 0 -162.289 8.56078e-006 -6.16544e-006 0 0 0 170.24 3.64305e-005 -1.82156e-006 0 0 0 1.83152 -1.61521e-005 1.5028e-006 0 0 0 -17.65 -3.45009e-005 -9.352e-006 0 0 0 -26.1943 1.73886e-006 2.25506e-006 15.5776 -0.000396 -6.99986e-006 3.97569e-016 4.96962e-017 -0 9.40534 1.04103 -6.51536 62.6007 -47.7081 117.427 2.76784 -0.005071 -0.003318 -22.2085 31.2126 28.2515 9.40569 1.04099 6.51538 62.6005 47.7089 -117.427 2.76784 -0.005071 0.003318 -22.2085 -31.2126 -28.2513 
